<svg version="1.1" id="Layer_1" xmlns="http://www.w3.org/2000/svg" xmlns:xlink="http://www.w3.org/1999/xlink" x="0px" y="0px"
	 width="100%" viewBox="0 0 2000 2000" enable-background="new 0 0 2000 2000" xml:space="preserve">
<path fill="#F6F4F0" opacity="1.000000" stroke="none" 
	d="
M917.000000,2001.000000 
	C611.333313,2001.000000 306.166656,2001.000000 1.000000,2001.000000 
	C1.000000,1334.333374 1.000000,667.666687 1.000000,1.000000 
	C667.666687,1.000000 1334.333374,1.000000 2001.000000,1.000000 
	C2001.000000,667.666687 2001.000000,1334.333374 2001.000000,2001.000000 
	C1639.833374,2001.000000 1278.666626,2001.000000 917.000000,2001.000000 
M1442.104736,909.016785 
	C1433.485962,909.016785 1424.867065,909.016785 1416.040527,909.016785 
	C1416.040527,911.849548 1416.040527,914.232178 1416.040527,916.852844 
	C1419.080444,916.998718 1421.829956,917.130615 1425.117188,917.288330 
	C1425.117188,933.652710 1425.117188,949.704041 1425.117188,965.785095 
	C1428.285645,965.785095 1430.889160,965.785095 1434.050293,965.785095 
	C1434.050293,949.523010 1434.050293,933.471252 1434.050293,917.009399 
	C1437.374878,917.009399 1440.144287,917.009399 1443.071167,917.009399 
	C1443.071167,915.445435 1443.071167,914.304932 1443.814453,912.893921 
	C1444.103516,913.010071 1444.604370,913.070923 1444.651245,913.250366 
	C1448.736694,928.895630 1456.442017,943.754883 1454.954712,960.618042 
	C1454.802002,962.349304 1454.934082,964.105713 1454.934082,965.716919 
	C1458.341431,965.716919 1460.943359,965.716919 1464.351562,965.716919 
	C1460.943237,945.489258 1470.861450,928.025696 1474.883057,909.376953 
	C1466.753784,908.364807 1466.753662,908.364746 1464.883911,915.550903 
	C1464.507324,916.998352 1464.152100,918.451660 1463.751709,919.892456 
	C1462.564941,924.161560 1461.360596,928.425842 1460.163208,932.692017 
	C1457.864258,927.315308 1456.451416,922.194458 1455.104004,917.056396 
	C1452.792114,908.241638 1452.809326,908.236816 1443.489380,909.215942 
	C1443.324585,909.233215 1443.163208,909.281677 1442.104736,909.016785 
M791.406738,1002.007935 
	C777.939697,999.097961 764.524414,999.691040 751.416443,1003.599731 
	C730.099609,1009.956116 716.542114,1024.151855 708.930542,1045.093994 
	C678.471680,1128.897339 647.620483,1212.558228 616.916443,1296.272583 
	C614.469360,1302.944580 612.037659,1309.622192 609.503784,1316.557129 
	C610.749756,1316.773804 611.370605,1316.975708 611.991516,1316.976196 
	C635.990662,1316.995605 659.990234,1316.928711 683.988464,1317.080322 
	C687.227783,1317.100952 687.776917,1315.256470 688.544495,1312.983276 
	C694.398865,1295.645752 700.351257,1278.341187 706.124268,1260.976807 
	C707.110352,1258.010620 708.504700,1256.910522 711.767029,1256.920288 
	C753.098572,1257.043335 794.430603,1257.034790 835.762268,1256.931030 
	C838.765869,1256.923462 840.105591,1257.847412 840.999390,1260.696167 
	C845.231873,1274.186279 849.665283,1287.613403 854.050354,1301.055542 
	C855.785034,1306.372925 857.580139,1311.670654 859.355469,1317.000732 
	C861.674988,1317.000732 863.500549,1317.000732 865.326111,1317.000732 
	C924.490723,1317.000732 983.657227,1317.256470 1042.818604,1316.817017 
	C1057.220703,1316.709961 1071.891479,1315.680420 1085.947998,1312.733887 
	C1139.396118,1301.530151 1176.910156,1270.657104 1197.166748,1219.517334 
	C1197.558228,1218.528809 1198.115234,1217.605713 1198.803589,1216.237671 
	C1199.049072,1217.157959 1199.210449,1217.476196 1199.205200,1217.791626 
	C1199.177612,1219.457520 1199.081299,1221.122437 1199.056763,1222.788208 
	C1198.637085,1251.283691 1208.928345,1275.122437 1230.429932,1293.876343 
	C1249.112061,1310.171021 1271.278442,1316.994507 1295.786743,1316.998657 
	C1336.618652,1317.005493 1377.450562,1317.003784 1418.282471,1316.990479 
	C1420.028931,1316.989868 1421.775269,1316.837524 1423.368042,1316.763062 
	C1423.368042,1295.583984 1423.368042,1275.016968 1423.368042,1254.142822 
	C1420.970825,1254.142822 1418.985474,1254.144409 1417.000244,1254.142700 
	C1379.168701,1254.109741 1341.334839,1254.310303 1303.507080,1253.911621 
	C1290.888184,1253.778809 1281.114624,1247.464233 1275.807007,1235.786743 
	C1270.649170,1224.438843 1271.736450,1213.255371 1279.491699,1203.322998 
	C1286.738037,1194.042603 1296.650269,1190.088989 1308.378174,1190.120361 
	C1339.710205,1190.203979 1371.042480,1190.148315 1402.374756,1190.148071 
	C1404.312378,1190.148071 1406.250000,1190.148193 1408.333740,1190.148193 
	C1408.333740,1169.097046 1408.333740,1148.700928 1408.333740,1127.999268 
	C1406.151367,1127.999268 1404.330688,1127.999268 1402.510010,1127.999146 
	C1369.677856,1127.997437 1336.844971,1128.132080 1304.013794,1127.945679 
	C1282.772339,1127.825195 1268.534668,1109.549194 1273.964355,1089.869385 
	C1277.522095,1076.974487 1289.866699,1068.052612 1304.625977,1068.025269 
	C1342.291260,1067.955566 1379.956665,1068.001221 1417.622070,1068.000732 
	C1419.546387,1068.000732 1421.470825,1068.000732 1423.344238,1068.000732 
	C1423.344238,1046.902588 1423.344238,1026.531494 1423.344238,1006.121033 
	C1422.260132,1006.002991 1421.604370,1005.868774 1420.948608,1005.869080 
	C1377.283936,1005.887756 1333.614624,1005.532837 1289.956299,1006.073669 
	C1257.936890,1006.470398 1232.047119,1020.175720 1214.727295,1047.103027 
	C1196.957642,1074.729858 1194.712036,1104.265503 1210.737793,1133.672241 
	C1215.747803,1142.865356 1223.204224,1150.725342 1229.122803,1158.636963 
	C1221.174805,1169.292480 1212.803955,1180.515015 1205.063965,1190.891724 
	C1205.063965,1190.880127 1204.879883,1189.427246 1205.091919,1188.034424 
	C1207.844482,1169.947998 1207.813477,1151.858276 1205.009766,1133.798584 
	C1198.647583,1092.815430 1179.111328,1059.666748 1145.406494,1035.308105 
	C1117.621582,1015.227844 1086.009644,1006.424622 1052.081543,1006.041199 
	C1012.921082,1005.598511 973.752441,1005.879639 934.587341,1005.867065 
	C933.311646,1005.866638 932.035828,1006.089783 930.279297,1006.253418 
	C930.279297,1100.389160 930.279297,1194.256104 930.279297,1288.123047 
	C928.826416,1286.990967 928.291870,1285.680176 927.803345,1284.352295 
	C898.453430,1204.569946 868.827576,1124.887451 839.935059,1044.939941 
	C831.499451,1021.597961 816.123047,1007.508484 791.406738,1002.007935 
M550.968323,1009.458313 
	C541.575806,1008.273010 532.191284,1006.143982 522.789307,1006.063416 
	C478.633148,1005.685120 434.472137,1005.867249 390.312866,1005.866943 
	C389.187042,1005.866943 388.061249,1006.069397 386.692688,1006.200684 
	C386.692688,1109.798950 386.692688,1213.191406 386.692688,1316.687744 
	C411.574829,1316.687744 436.145020,1316.687744 461.289276,1316.687744 
	C461.289276,1287.652710 461.289276,1258.924805 461.289276,1229.855713 
	C480.343079,1229.855713 498.827026,1230.076050 517.301758,1229.759521 
	C526.097107,1229.608887 535.035400,1229.263428 543.635010,1227.594482 
	C604.576965,1215.769287 645.298462,1160.713013 632.319275,1094.317871 
	C623.600586,1049.717163 594.651855,1022.649353 550.968323,1009.458313 
M571.494629,736.001099 
	C576.113953,736.001099 580.733276,736.001099 585.547485,736.001099 
	C585.547485,715.077087 585.547485,694.692810 585.547485,674.140808 
	C584.101257,674.028809 582.963196,673.864746 581.825012,673.864014 
	C566.829285,673.854797 551.833557,673.896423 536.837891,673.870544 
	C509.521149,673.823486 483.190369,678.569336 458.308624,690.163696 
	C428.325378,704.135193 404.863892,725.414124 390.130127,755.032532 
	C366.365173,802.805786 365.529755,851.660278 388.369476,899.880432 
	C408.256317,941.866394 442.335938,967.384338 487.110291,978.894592 
	C519.194702,987.142578 551.943176,984.700317 584.527344,984.858032 
	C584.809875,984.859436 585.093689,984.587463 585.532715,984.363708 
	C585.532715,964.041626 585.532715,943.656799 585.532715,922.851562 
	C583.388977,922.851562 581.583740,922.872742 579.779114,922.848267 
	C563.126831,922.622192 546.410095,923.236389 529.836548,921.972900 
	C499.122131,919.631409 475.043213,905.423279 459.381195,878.462463 
	C447.998627,858.868347 445.548737,837.523071 447.902466,815.242981 
	C452.051361,775.970093 480.722260,744.037415 519.675110,738.168457 
	C536.345886,735.656799 553.539856,736.617920 571.494629,736.001099 
M1502.216553,1182.500000 
	C1502.216553,1123.764038 1502.216553,1065.028198 1502.216553,1006.142517 
	C1477.113647,1006.142517 1452.712036,1006.142517 1428.030640,1006.142517 
	C1427.922607,1007.518860 1427.756714,1008.645874 1427.756592,1009.772888 
	C1427.749512,1080.741089 1427.746704,1151.709351 1427.766479,1222.677612 
	C1427.772705,1245.090698 1434.235107,1265.360352 1448.651245,1282.685669 
	C1468.387451,1306.404541 1494.254639,1316.925171 1524.720093,1316.988159 
	C1551.707886,1317.044067 1578.695923,1317.003784 1605.683838,1316.990112 
	C1607.299072,1316.989258 1608.914429,1316.846069 1610.643311,1316.763794 
	C1610.643311,1296.037720 1610.643311,1275.651489 1610.643311,1254.853027 
	C1608.520874,1254.853027 1606.718994,1254.853027 1604.917114,1254.853027 
	C1580.594727,1254.852905 1556.272217,1254.869141 1531.949829,1254.847656 
	C1513.120483,1254.830933 1502.287354,1243.953247 1502.225464,1224.981445 
	C1502.180420,1211.154419 1502.216797,1197.327148 1502.216553,1182.500000 
M602.528809,770.983704 
	C592.852051,789.206909 587.606445,808.625671 586.547974,829.233398 
	C584.563660,867.866394 594.866577,902.480103 620.866394,931.564697 
	C649.557922,963.660461 687.213501,976.727173 728.838318,979.880615 
	C762.330505,982.417908 793.745544,974.725586 822.322083,956.914001 
	C853.910950,937.224792 876.679504,910.531189 885.335754,873.515076 
	C891.319702,847.926575 887.410889,822.784546 879.885986,798.160583 
	C856.159607,720.519897 787.536316,686.620728 722.545471,691.731201 
	C669.150452,695.929871 629.386719,723.744568 602.528809,770.983704 
M1320.997803,937.734985 
	C1321.436768,935.377747 1321.875732,933.020508 1322.314697,930.663269 
	C1322.570068,930.693176 1322.825439,930.723022 1323.080811,930.752930 
	C1323.080811,942.355713 1323.080811,953.958435 1323.080811,965.688354 
	C1325.985352,965.688354 1328.527588,965.688354 1331.066406,965.688354 
	C1331.066406,946.654114 1331.066406,927.944946 1331.066406,909.103882 
	C1326.889160,909.103882 1323.090454,909.103882 1318.858398,909.103882 
	C1316.952148,921.357788 1315.058228,933.531738 1313.164429,945.705688 
	C1312.855347,945.667908 1312.546143,945.630066 1312.237061,945.592224 
	C1310.235718,933.481995 1308.234375,921.371704 1306.222290,909.196533 
	C1301.914795,909.196533 1297.990356,909.196533 1293.904297,909.196533 
	C1293.904297,928.190186 1293.904297,946.929016 1293.904297,965.824951 
	C1296.477783,965.824951 1298.768433,965.824951 1301.680420,965.824951 
	C1301.680420,954.984375 1301.680420,944.309509 1301.680420,933.634644 
	C1302.020142,933.616211 1302.359985,933.597778 1302.699707,933.579346 
	C1304.518433,944.302063 1306.337036,955.024780 1308.162109,965.784912 
	C1311.181885,965.784912 1313.792358,965.784912 1316.719116,965.784912 
	C1318.136475,956.611633 1319.527588,947.607361 1320.997803,937.734985 
M1263.739868,914.666504 
	C1263.364868,912.903198 1262.989990,911.139832 1262.609863,909.352539 
	C1258.389282,909.352539 1254.353638,909.352539 1250.345947,909.352539 
	C1250.345947,928.362427 1250.345947,946.955505 1250.345947,965.662720 
	C1253.000610,965.662720 1255.370850,965.662720 1258.129395,965.662720 
	C1258.129395,953.851562 1258.129395,942.387634 1258.129395,930.923706 
	C1258.344482,930.912109 1258.559570,930.900452 1258.774658,930.888855 
	C1260.720215,942.474854 1262.665771,954.060913 1264.636353,965.796509 
	C1267.607422,965.796509 1270.219971,965.796509 1273.211304,965.796509 
	C1274.896851,954.973145 1276.574097,944.203369 1278.251343,933.433594 
	C1278.587646,933.454224 1278.923828,933.474792 1279.260010,933.495361 
	C1279.260010,944.200439 1279.260010,954.905518 1279.260010,965.718384 
	C1282.396606,965.718384 1284.964966,965.718384 1287.608765,965.718384 
	C1287.608765,946.701660 1287.608765,927.984741 1287.608765,909.236084 
	C1283.333374,909.236084 1279.406860,909.236084 1275.303711,909.236084 
	C1273.423462,921.464417 1271.583374,933.430725 1269.743286,945.397034 
	C1269.391479,945.402771 1269.039551,945.408508 1268.687622,945.414246 
	C1267.079956,935.451599 1265.472168,925.489014 1263.739868,914.666504 
M1397.459351,963.981384 
	C1397.459351,945.740295 1397.459351,927.499207 1397.459351,909.341797 
	C1394.366821,909.341797 1391.976440,909.341797 1389.138916,909.341797 
	C1389.138916,919.236328 1389.138916,928.746338 1389.138916,938.256409 
	C1385.848755,929.610535 1383.532593,920.835144 1380.972656,912.131531 
	C1380.608521,910.893616 1379.172974,909.268555 1378.040161,909.096802 
	C1375.172485,908.662170 1372.194824,908.952637 1369.305420,908.952637 
	C1369.305420,928.330566 1369.305420,947.044495 1369.305420,965.607666 
	C1372.053589,965.607666 1374.441284,965.607666 1377.143066,965.607666 
	C1377.143066,953.036743 1377.143066,940.861755 1377.143066,928.686768 
	C1377.409058,928.643555 1377.675171,928.600342 1377.941162,928.557190 
	C1381.333008,940.968994 1384.724854,953.380798 1388.300659,966.465637 
	C1391.480469,965.903870 1394.417236,965.384949 1397.459351,963.981384 
M1016.931946,923.450256 
	C1015.606567,918.673340 1014.281189,913.896423 1012.959656,909.133301 
	C1009.096863,909.133301 1005.631592,909.133301 1001.898682,909.133301 
	C1001.898682,928.076843 1001.898682,946.834595 1001.898682,965.756653 
	C1004.506653,965.756653 1006.929749,965.756653 1009.800049,965.756653 
	C1009.800049,953.291565 1009.800049,941.064819 1009.800049,928.838074 
	C1011.098816,930.236511 1011.598755,931.745239 1012.015320,933.276611 
	C1014.678040,943.064087 1017.419128,952.832092 1019.907898,962.663757 
	C1020.568237,965.272278 1021.705261,966.315918 1024.349854,966.041382 
	C1026.106689,965.859070 1027.897705,966.006897 1029.768799,966.006897 
	C1029.768799,946.724426 1029.768799,928.003784 1029.768799,909.359863 
	C1027.048584,909.359863 1024.676392,909.359863 1021.847778,909.359863 
	C1021.847778,919.521057 1021.847778,929.277954 1021.847778,939.034912 
	C1021.626099,939.045959 1021.404358,939.057068 1021.182678,939.068115 
	C1019.815430,934.130310 1018.448181,929.192566 1016.931946,923.450256 
M1143.362305,936.500000 
	C1143.362305,946.245667 1143.362305,955.991333 1143.362305,965.630432 
	C1146.852173,965.630432 1149.577759,965.630432 1152.889404,965.630432 
	C1152.889404,957.871277 1152.889404,950.484009 1152.889404,943.162170 
	C1159.931763,942.837280 1161.142212,943.898865 1161.260010,950.315735 
	C1161.353394,955.407959 1161.278809,960.503296 1161.278809,965.755371 
	C1165.115723,965.755371 1167.862427,965.755371 1170.598633,965.755371 
	C1171.133179,945.838806 1170.791870,943.890747 1165.803467,938.083130 
	C1170.323242,932.343750 1171.879150,923.622131 1169.664673,916.500732 
	C1168.403564,912.445068 1165.603149,909.703735 1161.507080,909.393005 
	C1155.631714,908.947327 1149.697388,909.279297 1143.362793,909.279297 
	C1143.362793,918.250977 1143.362793,926.875488 1143.362305,936.500000 
M962.067505,909.263733 
	C957.890930,911.085510 955.083313,914.328003 954.981750,918.771301 
	C954.696777,931.239990 954.631042,943.727478 955.015015,956.191040 
	C955.170227,961.229370 958.434265,964.686707 963.533569,966.078796 
	C973.933655,968.917847 981.549744,963.456543 981.821228,952.587891 
	C982.058289,943.096558 981.940063,933.594543 981.877136,924.097961 
	C981.793152,911.427856 975.136230,906.201843 962.067505,909.263733 
M1245.013306,944.484802 
	C1244.990234,936.504456 1245.209473,928.513855 1244.874878,920.546570 
	C1244.547974,912.767212 1239.289429,908.188965 1231.435791,908.172058 
	C1223.518799,908.154968 1218.252930,912.623657 1218.024292,920.471741 
	C1217.695312,931.764526 1217.698853,943.080566 1218.017822,954.373840 
	C1218.240112,962.244873 1223.497070,966.770935 1231.357910,966.763977 
	C1239.240234,966.757019 1244.334106,962.202515 1244.908813,954.451416 
	C1245.129517,951.473633 1244.989136,948.469055 1245.013306,944.484802 
M1103.073853,962.500366 
	C1104.059448,960.076477 1105.834473,957.672791 1105.896851,955.225403 
	C1106.197998,943.414795 1106.166626,931.590332 1105.977661,919.775269 
	C1105.903320,915.125244 1103.502319,911.510071 1099.167480,909.516479 
	C1089.191528,904.928406 1079.324463,910.878296 1079.073730,921.816162 
	C1078.841064,931.969971 1078.974243,942.133057 1079.015625,952.291809 
	C1079.037842,957.733765 1080.353638,962.742737 1085.802979,965.169800 
	C1091.683716,967.789124 1097.460938,967.532776 1103.073853,962.500366 
M1120.068481,952.009949 
	C1120.068481,937.756714 1120.068481,923.503479 1120.068481,909.346436 
	C1116.677490,909.346436 1113.966919,909.346436 1111.103149,909.346436 
	C1111.103149,924.558655 1110.951050,939.364807 1111.173462,954.165344 
	C1111.270752,960.644165 1114.516968,964.595276 1119.874390,966.138062 
	C1130.020996,969.060059 1137.660889,963.665955 1137.853882,953.017761 
	C1138.095093,939.702454 1137.938843,926.379822 1137.924805,913.060364 
	C1137.923462,911.783691 1137.713257,910.507324 1137.607300,909.312012 
	C1134.692993,909.312012 1132.133911,909.312012 1129.208496,909.312012 
	C1129.208496,923.808838 1129.210938,937.934387 1129.206543,952.059937 
	C1129.205688,955.009766 1129.114136,957.951904 1125.129517,958.240601 
	C1121.329712,958.515808 1120.275635,956.100159 1120.068481,952.009949 
M1361.685669,961.006470 
	C1362.375366,956.949524 1363.580566,952.902588 1363.659668,948.833801 
	C1363.914673,935.720215 1363.754639,922.598572 1363.754639,909.212158 
	C1360.664062,909.212158 1358.101929,909.212158 1355.228638,909.212158 
	C1355.158813,910.554016 1355.049805,911.686462 1355.048584,912.819092 
	C1355.034546,925.978516 1355.030396,939.138000 1355.039551,952.297424 
	C1355.041748,955.378784 1354.540161,958.143616 1350.665649,958.244385 
	C1346.497070,958.352783 1345.888550,955.522156 1345.922241,952.188843 
	C1345.971069,947.358643 1345.931396,942.527649 1345.931152,937.696960 
	C1345.930542,928.254272 1345.930908,918.811646 1345.930908,909.294678 
	C1342.624878,909.294678 1339.910767,909.294678 1336.928345,909.294678 
	C1336.928345,924.120667 1336.916992,938.591125 1336.933838,953.061584 
	C1336.940552,958.833252 1338.816772,963.599426 1344.594849,965.847290 
	C1350.770630,968.249634 1356.794434,966.633057 1361.685669,961.006470 
M1187.393311,957.793884 
	C1190.582520,965.490479 1196.534668,968.341614 1204.680420,966.074524 
	C1212.129517,964.001282 1215.021851,956.941711 1213.149292,944.970520 
	C1210.617310,944.970520 1208.033447,944.970520 1204.961548,944.970520 
	C1204.961548,947.912109 1205.040771,950.708191 1204.939819,953.497681 
	C1204.834961,956.389648 1203.489868,958.243225 1200.329712,958.194580 
	C1197.161255,958.145813 1195.917969,956.283875 1195.914185,953.350647 
	C1195.900391,942.854187 1195.909424,932.357788 1195.892944,921.861328 
	C1195.888062,918.729431 1197.109009,916.611328 1200.513306,916.670471 
	C1203.964600,916.730347 1204.954346,919.076843 1204.981079,922.083618 
	C1204.998047,924.006897 1204.984253,925.930420 1204.984253,927.890381 
	C1208.169434,927.890381 1210.619507,927.890381 1213.445435,927.890381 
	C1213.445435,925.228943 1213.688110,922.755615 1213.401245,920.345337 
	C1212.423096,912.126648 1207.725220,908.008606 1199.802368,908.171997 
	C1191.889160,908.335205 1187.135376,912.725647 1186.979370,921.040344 
	C1186.754639,933.022095 1187.089111,945.014282 1187.393311,957.793884 
M1045.904785,910.987976 
	C1050.450806,929.056763 1059.327271,946.233032 1056.273438,965.669861 
	C1059.922119,965.669861 1062.661621,965.669861 1066.308228,965.669861 
	C1062.620239,945.396729 1072.706421,927.970520 1076.673950,909.182251 
	C1073.675293,909.182251 1071.063843,909.182251 1068.335327,909.182251 
	C1066.167969,917.201721 1064.053467,925.025574 1061.554810,934.270630 
	C1059.018799,924.940002 1056.867310,917.024414 1054.515991,908.373596 
	C1051.337524,909.046814 1048.540771,909.639282 1045.904785,910.987976 
M1403.135254,962.247375 
	C1403.713013,969.717651 1409.048462,964.239258 1412.029297,966.369629 
	C1412.029297,946.757751 1412.029297,928.042297 1412.029297,909.259644 
	C1409.040161,909.259644 1406.302368,909.259644 1403.134888,909.259644 
	C1403.134888,926.815552 1403.134888,944.058044 1403.135254,962.247375 
M940.854858,927.500549 
	C940.854797,934.490356 940.860840,941.480225 940.853210,948.470032 
	C940.844238,956.766479 940.839111,956.766479 932.812500,958.570374 
	C932.812500,960.970520 932.812500,963.370605 932.812500,965.724121 
	C944.864319,966.994690 949.739502,962.765320 949.875183,951.240540 
	C949.922241,947.246826 949.886292,943.252258 949.886475,939.258057 
	C949.887085,929.318909 949.886658,919.379761 949.886658,909.276611 
	C946.630432,909.276611 943.919861,909.276611 940.854736,909.276611 
	C940.854736,915.237549 940.854736,920.869324 940.854858,927.500549 
M996.005981,951.494873 
	C996.005981,937.403870 996.005981,923.312805 996.005981,909.168091 
	C992.730042,909.168091 990.126892,909.168091 987.260132,909.168091 
	C987.260132,928.107910 987.260132,946.827087 987.260132,965.698608 
	C990.219727,965.698608 992.935730,965.698608 996.005981,965.698608 
	C996.005981,961.095764 996.005981,956.793579 996.005981,951.494873 
z"/>
<path fill="#737373" opacity="1.000000" stroke="none" 
	d="
M791.826294,1002.065430 
	C816.123047,1007.508484 831.499451,1021.597961 839.935059,1044.939941 
	C868.827576,1124.887451 898.453430,1204.569946 927.803345,1284.352295 
	C928.291870,1285.680176 928.826416,1286.990967 930.279297,1288.123047 
	C930.279297,1194.256104 930.279297,1100.389160 930.279297,1006.253418 
	C932.035828,1006.089783 933.311646,1005.866638 934.587341,1005.867065 
	C973.752441,1005.879639 1012.921082,1005.598511 1052.081543,1006.041199 
	C1086.009644,1006.424622 1117.621582,1015.227844 1145.406494,1035.308105 
	C1179.111328,1059.666748 1198.647583,1092.815430 1205.009766,1133.798584 
	C1207.813477,1151.858276 1207.844482,1169.947998 1205.091919,1188.034424 
	C1204.879883,1189.427246 1205.063965,1190.880127 1205.063965,1190.891724 
	C1212.803955,1180.515015 1221.174805,1169.292480 1229.122803,1158.636963 
	C1223.204224,1150.725342 1215.747803,1142.865356 1210.737793,1133.672241 
	C1194.712036,1104.265503 1196.957642,1074.729858 1214.727295,1047.103027 
	C1232.047119,1020.175720 1257.936890,1006.470398 1289.956299,1006.073669 
	C1333.614624,1005.532837 1377.283936,1005.887756 1420.948608,1005.869080 
	C1421.604370,1005.868774 1422.260132,1006.002991 1423.344238,1006.121033 
	C1423.344238,1026.531494 1423.344238,1046.902588 1423.344238,1068.000732 
	C1421.470825,1068.000732 1419.546387,1068.000732 1417.622070,1068.000732 
	C1379.956665,1068.001221 1342.291260,1067.955566 1304.625977,1068.025269 
	C1289.866699,1068.052612 1277.522095,1076.974487 1273.964355,1089.869385 
	C1268.534668,1109.549194 1282.772339,1127.825195 1304.013794,1127.945679 
	C1336.844971,1128.132080 1369.677856,1127.997437 1402.510010,1127.999146 
	C1404.330688,1127.999268 1406.151367,1127.999268 1408.333740,1127.999268 
	C1408.333740,1148.700928 1408.333740,1169.097046 1408.333740,1190.148193 
	C1406.250000,1190.148193 1404.312378,1190.148071 1402.374756,1190.148071 
	C1371.042480,1190.148315 1339.710205,1190.203979 1308.378174,1190.120361 
	C1296.650269,1190.088989 1286.738037,1194.042603 1279.491699,1203.322998 
	C1271.736450,1213.255371 1270.649170,1224.438843 1275.807007,1235.786743 
	C1281.114624,1247.464233 1290.888184,1253.778809 1303.507080,1253.911621 
	C1341.334839,1254.310303 1379.168701,1254.109741 1417.000244,1254.142700 
	C1418.985474,1254.144409 1420.970825,1254.142822 1423.368042,1254.142822 
	C1423.368042,1275.016968 1423.368042,1295.583984 1423.368042,1316.763062 
	C1421.775269,1316.837524 1420.028931,1316.989868 1418.282471,1316.990479 
	C1377.450562,1317.003784 1336.618652,1317.005493 1295.786743,1316.998657 
	C1271.278442,1316.994507 1249.112061,1310.171021 1230.429932,1293.876343 
	C1208.928345,1275.122437 1198.637085,1251.283691 1199.056763,1222.788208 
	C1199.081299,1221.122437 1199.177612,1219.457520 1199.205200,1217.791626 
	C1199.210449,1217.476196 1199.049072,1217.157959 1198.803589,1216.237671 
	C1198.115234,1217.605713 1197.558228,1218.528809 1197.166748,1219.517334 
	C1176.910156,1270.657104 1139.396118,1301.530151 1085.947998,1312.733887 
	C1071.891479,1315.680420 1057.220703,1316.709961 1042.818604,1316.817017 
	C983.657227,1317.256470 924.490723,1317.000732 865.326111,1317.000732 
	C863.500549,1317.000732 861.674988,1317.000732 859.355469,1317.000732 
	C857.580139,1311.670654 855.785034,1306.372925 854.050354,1301.055542 
	C849.665283,1287.613403 845.231873,1274.186279 840.999390,1260.696167 
	C840.105591,1257.847412 838.765869,1256.923462 835.762268,1256.931030 
	C794.430603,1257.034790 753.098572,1257.043335 711.767029,1256.920288 
	C708.504700,1256.910522 707.110352,1258.010620 706.124268,1260.976807 
	C700.351257,1278.341187 694.398865,1295.645752 688.544495,1312.983276 
	C687.776917,1315.256470 687.227783,1317.100952 683.988464,1317.080322 
	C659.990234,1316.928711 635.990662,1316.995605 611.991516,1316.976196 
	C611.370605,1316.975708 610.749756,1316.773804 609.503784,1316.557129 
	C612.037659,1309.622192 614.469360,1302.944580 616.916443,1296.272583 
	C647.620483,1212.558228 678.471680,1128.897339 708.930542,1045.093994 
	C716.542114,1024.151855 730.099609,1009.956116 751.416443,1003.599731 
	C764.524414,999.691040 777.939697,999.097961 791.826294,1002.065430 
M1128.897339,1132.752197 
	C1128.168579,1130.367310 1127.538086,1127.947021 1126.696289,1125.602661 
	C1115.712524,1095.016602 1094.485352,1075.378784 1062.373657,1070.398560 
	C1043.952393,1067.541626 1024.896240,1068.776367 1006.124939,1068.198120 
	C1005.876038,1068.190430 1005.615295,1068.564331 1005.405151,1068.725586 
	C1005.405151,1130.644043 1005.405151,1192.520508 1005.405151,1254.905884 
	C1025.480347,1254.345703 1045.345459,1256.576050 1064.879883,1252.286865 
	C1091.587524,1246.422729 1111.271240,1231.228271 1122.868530,1206.323608 
	C1133.771973,1182.908936 1134.264282,1158.435059 1128.897339,1132.752197 
M810.887756,1164.615845 
	C808.555786,1157.335815 806.217102,1150.057983 803.893127,1142.775391 
	C796.467285,1119.505127 789.068481,1096.226074 781.608582,1072.966797 
	C779.828552,1067.416870 776.804138,1064.832764 773.377136,1066.661865 
	C771.101501,1067.876343 769.122620,1070.744873 768.237854,1073.298218 
	C758.987793,1099.989746 749.994202,1126.770020 740.912292,1153.519897 
	C736.275330,1167.177490 731.602966,1180.822876 726.842896,1194.778076 
	C758.195679,1194.778076 789.010742,1194.778076 820.444092,1194.778076 
	C817.206116,1184.647339 814.130066,1175.023438 810.887756,1164.615845 
z"/>
<path fill="#737373" opacity="1.000000" stroke="none" 
	d="
M551.354126,1009.602051 
	C594.651855,1022.649353 623.600586,1049.717163 632.319275,1094.317871 
	C645.298462,1160.713013 604.576965,1215.769287 543.635010,1227.594482 
	C535.035400,1229.263428 526.097107,1229.608887 517.301758,1229.759521 
	C498.827026,1230.076050 480.343079,1229.855713 461.289276,1229.855713 
	C461.289276,1258.924805 461.289276,1287.652710 461.289276,1316.687744 
	C436.145020,1316.687744 411.574829,1316.687744 386.692688,1316.687744 
	C386.692688,1213.191406 386.692688,1109.798950 386.692688,1006.200684 
	C388.061249,1006.069397 389.187042,1005.866943 390.312866,1005.866943 
	C434.472137,1005.867249 478.633148,1005.685120 522.789307,1006.063416 
	C532.191284,1006.143982 541.575806,1008.273010 551.354126,1009.602051 
M510.463135,1167.143555 
	C513.944397,1166.931030 517.472168,1167.008545 520.899536,1166.459595 
	C546.844666,1162.304810 563.097778,1138.688354 559.427734,1110.650391 
	C556.257202,1086.428101 539.669861,1069.805908 516.120728,1068.425049 
	C498.196899,1067.374146 480.163055,1068.195801 462.178223,1068.213135 
	C461.925598,1068.213379 461.673279,1068.586060 461.391724,1068.807739 
	C461.391724,1101.379395 461.391724,1133.966187 461.391724,1167.145386 
	C477.593384,1167.145386 493.533386,1167.145386 510.463135,1167.143555 
z"/>
<path fill="#737373" opacity="1.000000" stroke="none" 
	d="
M570.995361,736.001099 
	C553.539856,736.617920 536.345886,735.656799 519.675110,738.168457 
	C480.722260,744.037415 452.051361,775.970093 447.902466,815.242981 
	C445.548737,837.523071 447.998627,858.868347 459.381195,878.462463 
	C475.043213,905.423279 499.122131,919.631409 529.836548,921.972900 
	C546.410095,923.236389 563.126831,922.622192 579.779114,922.848267 
	C581.583740,922.872742 583.388977,922.851562 585.532715,922.851562 
	C585.532715,943.656799 585.532715,964.041626 585.532715,984.363708 
	C585.093689,984.587463 584.809875,984.859436 584.527344,984.858032 
	C551.943176,984.700317 519.194702,987.142578 487.110291,978.894592 
	C442.335938,967.384338 408.256317,941.866394 388.369476,899.880432 
	C365.529755,851.660278 366.365173,802.805786 390.130127,755.032532 
	C404.863892,725.414124 428.325378,704.135193 458.308624,690.163696 
	C483.190369,678.569336 509.521149,673.823486 536.837891,673.870544 
	C551.833557,673.896423 566.829285,673.854797 581.825012,673.864014 
	C582.963196,673.864746 584.101257,674.028809 585.547485,674.140808 
	C585.547485,694.692810 585.547485,715.077087 585.547485,736.001099 
	C580.733276,736.001099 576.113953,736.001099 570.995361,736.001099 
z"/>
<path fill="#737373" opacity="1.000000" stroke="none" 
	d="
M1502.216675,1183.000000 
	C1502.216797,1197.327148 1502.180420,1211.154419 1502.225464,1224.981445 
	C1502.287354,1243.953247 1513.120483,1254.830933 1531.949829,1254.847656 
	C1556.272217,1254.869141 1580.594727,1254.852905 1604.917114,1254.853027 
	C1606.718994,1254.853027 1608.520874,1254.853027 1610.643311,1254.853027 
	C1610.643311,1275.651489 1610.643311,1296.037720 1610.643311,1316.763794 
	C1608.914429,1316.846069 1607.299072,1316.989258 1605.683838,1316.990112 
	C1578.695923,1317.003784 1551.707886,1317.044067 1524.720093,1316.988159 
	C1494.254639,1316.925171 1468.387451,1306.404541 1448.651245,1282.685669 
	C1434.235107,1265.360352 1427.772705,1245.090698 1427.766479,1222.677612 
	C1427.746704,1151.709351 1427.749512,1080.741089 1427.756592,1009.772888 
	C1427.756714,1008.645874 1427.922607,1007.518860 1428.030640,1006.142517 
	C1452.712036,1006.142517 1477.113647,1006.142517 1502.216553,1006.142517 
	C1502.216553,1065.028198 1502.216553,1123.764038 1502.216675,1183.000000 
z"/>
<path fill="#FF7722" opacity="1.000000" stroke="none" 
	d="
M602.712646,770.662354 
	C629.386719,723.744568 669.150452,695.929871 722.545471,691.731201 
	C787.536316,686.620728 856.159607,720.519897 879.885986,798.160583 
	C887.410889,822.784546 891.319702,847.926575 885.335754,873.515076 
	C876.679504,910.531189 853.910950,937.224792 822.322083,956.914001 
	C793.745544,974.725586 762.330505,982.417908 728.838318,979.880615 
	C687.213501,976.727173 649.557922,963.660461 620.866394,931.564697 
	C594.866577,902.480103 584.563660,867.866394 586.547974,829.233398 
	C587.606445,808.625671 592.852051,789.206909 602.712646,770.662354 
M687.583313,790.093628 
	C669.791321,809.175781 662.170410,832.121765 663.313782,857.779053 
	C664.467651,883.671448 674.335693,905.720703 697.291443,919.415710 
	C720.166687,933.062683 745.213989,936.829956 771.462830,931.463318 
	C788.401733,928.000122 803.313477,919.977417 817.650391,910.747559 
	C833.881165,900.298523 850.033569,889.726746 866.141846,879.089905 
	C867.371582,878.277893 868.478943,876.632935 868.790161,875.191101 
	C870.051208,869.348083 871.606506,863.466797 871.925171,857.539001 
	C873.724121,824.074829 865.463135,793.207825 847.019775,765.175354 
	C837.760864,751.102661 826.166870,739.334106 811.992188,730.320740 
	C807.995239,732.973816 804.376953,735.637146 800.519531,737.891113 
	C782.517761,748.409973 762.424133,753.498230 742.843689,759.915894 
	C722.795593,766.486633 703.348999,774.179504 687.583313,790.093628 
M618.772705,901.679871 
	C633.943481,927.456116 656.049561,944.783875 684.011230,954.768860 
	C708.871033,963.646240 734.482666,967.111023 760.658264,962.886719 
	C800.467285,956.462219 832.877930,937.685974 855.828918,903.883606 
	C857.150024,901.937927 858.173889,899.790588 859.336060,897.737061 
	C846.771484,905.083008 835.250549,913.269409 823.463806,921.053406 
	C794.108826,940.439697 762.706604,951.060852 727.050781,942.948486 
	C705.515686,938.048828 685.703552,930.031799 671.329163,912.250549 
	C646.689392,881.770874 644.790649,833.305725 666.562256,798.188599 
	C679.815247,776.811707 699.314453,763.490967 722.337341,754.958801 
	C742.911011,747.334229 763.821594,740.620544 784.414551,733.045471 
	C790.184021,730.923096 795.356140,727.176880 801.730713,723.663940 
	C752.744812,700.713623 706.013611,700.059937 660.780457,729.419800 
	C603.453491,766.629395 584.970398,841.914368 618.772705,901.679871 
z"/>
<path fill="#FF7824" opacity="1.000000" stroke="none" 
	d="
M1320.958252,938.169067 
	C1319.527588,947.607361 1318.136475,956.611633 1316.719116,965.784912 
	C1313.792358,965.784912 1311.181885,965.784912 1308.162109,965.784912 
	C1306.337036,955.024780 1304.518433,944.302063 1302.699707,933.579346 
	C1302.359985,933.597778 1302.020142,933.616211 1301.680420,933.634644 
	C1301.680420,944.309509 1301.680420,954.984375 1301.680420,965.824951 
	C1298.768433,965.824951 1296.477783,965.824951 1293.904297,965.824951 
	C1293.904297,946.929016 1293.904297,928.190186 1293.904297,909.196533 
	C1297.990356,909.196533 1301.914795,909.196533 1306.222290,909.196533 
	C1308.234375,921.371704 1310.235718,933.481995 1312.237061,945.592224 
	C1312.546143,945.630066 1312.855347,945.667908 1313.164429,945.705688 
	C1315.058228,933.531738 1316.952148,921.357788 1318.858398,909.103882 
	C1323.090454,909.103882 1326.889160,909.103882 1331.066406,909.103882 
	C1331.066406,927.944946 1331.066406,946.654114 1331.066406,965.688354 
	C1328.527588,965.688354 1325.985352,965.688354 1323.080811,965.688354 
	C1323.080811,953.958435 1323.080811,942.355713 1323.080811,930.752930 
	C1322.825439,930.723022 1322.570068,930.693176 1322.314697,930.663269 
	C1321.875732,933.020508 1321.436768,935.377747 1320.958252,938.169067 
z"/>
<path fill="#FF7926" opacity="1.000000" stroke="none" 
	d="
M1263.802124,915.096436 
	C1265.472168,925.489014 1267.079956,935.451599 1268.687622,945.414246 
	C1269.039551,945.408508 1269.391479,945.402771 1269.743286,945.397034 
	C1271.583374,933.430725 1273.423462,921.464417 1275.303711,909.236084 
	C1279.406860,909.236084 1283.333374,909.236084 1287.608765,909.236084 
	C1287.608765,927.984741 1287.608765,946.701660 1287.608765,965.718384 
	C1284.964966,965.718384 1282.396606,965.718384 1279.260010,965.718384 
	C1279.260010,954.905518 1279.260010,944.200439 1279.260010,933.495361 
	C1278.923828,933.474792 1278.587646,933.454224 1278.251343,933.433594 
	C1276.574097,944.203369 1274.896851,954.973145 1273.211304,965.796509 
	C1270.219971,965.796509 1267.607422,965.796509 1264.636353,965.796509 
	C1262.665771,954.060913 1260.720215,942.474854 1258.774658,930.888855 
	C1258.559570,930.900452 1258.344482,930.912109 1258.129395,930.923706 
	C1258.129395,942.387634 1258.129395,953.851562 1258.129395,965.662720 
	C1255.370850,965.662720 1253.000610,965.662720 1250.345947,965.662720 
	C1250.345947,946.955505 1250.345947,928.362427 1250.345947,909.352539 
	C1254.353638,909.352539 1258.389282,909.352539 1262.609863,909.352539 
	C1262.989990,911.139832 1263.364868,912.903198 1263.802124,915.096436 
z"/>
<path fill="#FF7722" opacity="1.000000" stroke="none" 
	d="
M1397.406738,964.423706 
	C1394.417236,965.384949 1391.480469,965.903870 1388.300659,966.465637 
	C1384.724854,953.380798 1381.333008,940.968994 1377.941162,928.557190 
	C1377.675171,928.600342 1377.409058,928.643555 1377.143066,928.686768 
	C1377.143066,940.861755 1377.143066,953.036743 1377.143066,965.607666 
	C1374.441284,965.607666 1372.053589,965.607666 1369.305420,965.607666 
	C1369.305420,947.044495 1369.305420,928.330566 1369.305420,908.952637 
	C1372.194824,908.952637 1375.172485,908.662170 1378.040161,909.096802 
	C1379.172974,909.268555 1380.608521,910.893616 1380.972656,912.131531 
	C1383.532593,920.835144 1385.848755,929.610535 1389.138916,938.256409 
	C1389.138916,928.746338 1389.138916,919.236328 1389.138916,909.341797 
	C1391.976440,909.341797 1394.366821,909.341797 1397.459351,909.341797 
	C1397.459351,927.499207 1397.459351,945.740295 1397.406738,964.423706 
z"/>
<path fill="#FF7722" opacity="1.000000" stroke="none" 
	d="
M1017.006470,923.852539 
	C1018.448181,929.192566 1019.815430,934.130310 1021.182678,939.068115 
	C1021.404358,939.057068 1021.626099,939.045959 1021.847778,939.034912 
	C1021.847778,929.277954 1021.847778,919.521057 1021.847778,909.359863 
	C1024.676392,909.359863 1027.048584,909.359863 1029.768799,909.359863 
	C1029.768799,928.003784 1029.768799,946.724426 1029.768799,966.006897 
	C1027.897705,966.006897 1026.106689,965.859070 1024.349854,966.041382 
	C1021.705261,966.315918 1020.568237,965.272278 1019.907898,962.663757 
	C1017.419128,952.832092 1014.678040,943.064087 1012.015320,933.276611 
	C1011.598755,931.745239 1011.098816,930.236511 1009.800049,928.838074 
	C1009.800049,941.064819 1009.800049,953.291565 1009.800049,965.756653 
	C1006.929749,965.756653 1004.506653,965.756653 1001.898682,965.756653 
	C1001.898682,946.834595 1001.898682,928.076843 1001.898682,909.133301 
	C1005.631592,909.133301 1009.096863,909.133301 1012.959656,909.133301 
	C1014.281189,913.896423 1015.606567,918.673340 1017.006470,923.852539 
z"/>
<path fill="#FF7926" opacity="1.000000" stroke="none" 
	d="
M1143.362549,936.000000 
	C1143.362793,926.875488 1143.362793,918.250977 1143.362793,909.279297 
	C1149.697388,909.279297 1155.631714,908.947327 1161.507080,909.393005 
	C1165.603149,909.703735 1168.403564,912.445068 1169.664673,916.500732 
	C1171.879150,923.622131 1170.323242,932.343750 1165.803467,938.083130 
	C1170.791870,943.890747 1171.133179,945.838806 1170.598633,965.755371 
	C1167.862427,965.755371 1165.115723,965.755371 1161.278809,965.755371 
	C1161.278809,960.503296 1161.353394,955.407959 1161.260010,950.315735 
	C1161.142212,943.898865 1159.931763,942.837280 1152.889404,943.162170 
	C1152.889404,950.484009 1152.889404,957.871277 1152.889404,965.630432 
	C1149.577759,965.630432 1146.852173,965.630432 1143.362305,965.630432 
	C1143.362305,955.991333 1143.362305,946.245667 1143.362549,936.000000 
M1152.442017,922.694092 
	C1152.441895,923.354919 1152.231323,924.109375 1152.476562,924.661194 
	C1153.906128,927.876953 1149.088867,933.575806 1155.753418,934.474426 
	C1160.335693,935.092285 1161.354980,932.649658 1161.214233,924.102905 
	C1161.105835,917.519348 1159.993896,916.617310 1152.673706,917.479858 
	C1152.598755,918.873779 1152.520752,920.325012 1152.442017,922.694092 
z"/>
<path fill="#FF7926" opacity="1.000000" stroke="none" 
	d="
M962.443481,909.146362 
	C975.136230,906.201843 981.793152,911.427856 981.877136,924.097961 
	C981.940063,933.594543 982.058289,943.096558 981.821228,952.587891 
	C981.549744,963.456543 973.933655,968.917847 963.533569,966.078796 
	C958.434265,964.686707 955.170227,961.229370 955.015015,956.191040 
	C954.631042,943.727478 954.696777,931.239990 954.981750,918.771301 
	C955.083313,914.328003 957.890930,911.085510 962.443481,909.146362 
M972.853027,947.370361 
	C972.853027,944.050537 972.860046,940.730774 972.851562,937.410950 
	C972.837952,932.099731 973.188538,926.745361 972.585327,921.501282 
	C972.382568,919.738708 969.978577,917.688782 968.106567,916.910828 
	C967.297180,916.574341 964.050781,919.093872 964.014343,920.375793 
	C963.689819,931.813843 963.714661,943.268433 964.018860,954.707947 
	C964.051208,955.925903 966.484375,957.952637 967.881714,958.021484 
	C969.340637,958.093323 971.642700,956.565186 972.227783,955.170837 
	C973.073120,953.156128 972.703857,950.631775 972.853027,947.370361 
z"/>
<path fill="#FF7824" opacity="1.000000" stroke="none" 
	d="
M1245.013306,944.980713 
	C1244.989136,948.469055 1245.129517,951.473633 1244.908813,954.451416 
	C1244.334106,962.202515 1239.240234,966.757019 1231.357910,966.763977 
	C1223.497070,966.770935 1218.240112,962.244873 1218.017822,954.373840 
	C1217.698853,943.080566 1217.695312,931.764526 1218.024292,920.471741 
	C1218.252930,912.623657 1223.518799,908.154968 1231.435791,908.172058 
	C1239.289429,908.188965 1244.547974,912.767212 1244.874878,920.546570 
	C1245.209473,928.513855 1244.990234,936.504456 1245.013306,944.980713 
M1226.872192,940.494751 
	C1226.874756,944.477783 1226.904175,948.461060 1226.871460,952.443787 
	C1226.845703,955.574524 1227.501343,958.214661 1231.332642,958.258667 
	C1235.101196,958.301941 1236.002441,955.791199 1236.000244,952.606628 
	C1235.993408,942.483093 1235.989136,932.359497 1236.000610,922.235962 
	C1236.004150,918.991882 1234.940186,916.609863 1231.233154,916.664917 
	C1227.735962,916.716858 1226.870728,919.069214 1226.878296,922.071228 
	C1226.892822,927.879761 1226.875854,933.688477 1226.872192,940.494751 
z"/>
<path fill="#FF7824" opacity="1.000000" stroke="none" 
	d="
M1102.824463,962.778259 
	C1097.460938,967.532776 1091.683716,967.789124 1085.802979,965.169800 
	C1080.353638,962.742737 1079.037842,957.733765 1079.015625,952.291809 
	C1078.974243,942.133057 1078.841064,931.969971 1079.073730,921.816162 
	C1079.324463,910.878296 1089.191528,904.928406 1099.167480,909.516479 
	C1103.502319,911.510071 1105.903320,915.125244 1105.977661,919.775269 
	C1106.166626,931.590332 1106.197998,943.414795 1105.896851,955.225403 
	C1105.834473,957.672791 1104.059448,960.076477 1102.824463,962.778259 
M1088.007446,937.500061 
	C1088.008911,942.479797 1088.011841,947.459595 1088.011108,952.439331 
	C1088.010620,955.559998 1088.751587,958.182983 1092.539551,958.265747 
	C1096.366943,958.349365 1097.162231,955.806946 1097.156250,952.626404 
	C1097.137207,942.500977 1097.133789,932.375488 1097.158691,922.250122 
	C1097.166504,919.029846 1096.263916,916.538696 1092.483643,916.663391 
	C1088.727905,916.787231 1087.998291,919.435791 1088.007446,922.558167 
	C1088.021118,927.205872 1088.008789,931.853699 1088.007446,937.500061 
z"/>
<path fill="#FF7926" opacity="1.000000" stroke="none" 
	d="
M1120.075806,952.460999 
	C1120.275635,956.100159 1121.329712,958.515808 1125.129517,958.240601 
	C1129.114136,957.951904 1129.205688,955.009766 1129.206543,952.059937 
	C1129.210938,937.934387 1129.208496,923.808838 1129.208496,909.312012 
	C1132.133911,909.312012 1134.692993,909.312012 1137.607300,909.312012 
	C1137.713257,910.507324 1137.923462,911.783691 1137.924805,913.060364 
	C1137.938843,926.379822 1138.095093,939.702454 1137.853882,953.017761 
	C1137.660889,963.665955 1130.020996,969.060059 1119.874390,966.138062 
	C1114.516968,964.595276 1111.270752,960.644165 1111.173462,954.165344 
	C1110.951050,939.364807 1111.103149,924.558655 1111.103149,909.346436 
	C1113.966919,909.346436 1116.677490,909.346436 1120.068481,909.346436 
	C1120.068481,923.503479 1120.068481,937.756714 1120.075806,952.460999 
z"/>
<path fill="#FF7926" opacity="1.000000" stroke="none" 
	d="
M1361.471436,961.316589 
	C1356.794434,966.633057 1350.770630,968.249634 1344.594849,965.847290 
	C1338.816772,963.599426 1336.940552,958.833252 1336.933838,953.061584 
	C1336.916992,938.591125 1336.928345,924.120667 1336.928345,909.294678 
	C1339.910767,909.294678 1342.624878,909.294678 1345.930908,909.294678 
	C1345.930908,918.811646 1345.930542,928.254272 1345.931152,937.696960 
	C1345.931396,942.527649 1345.971069,947.358643 1345.922241,952.188843 
	C1345.888550,955.522156 1346.497070,958.352783 1350.665649,958.244385 
	C1354.540161,958.143616 1355.041748,955.378784 1355.039551,952.297424 
	C1355.030396,939.138000 1355.034546,925.978516 1355.048584,912.819092 
	C1355.049805,911.686462 1355.158813,910.554016 1355.228638,909.212158 
	C1358.101929,909.212158 1360.664062,909.212158 1363.754639,909.212158 
	C1363.754639,922.598572 1363.914673,935.720215 1363.659668,948.833801 
	C1363.580566,952.902588 1362.375366,956.949524 1361.471436,961.316589 
z"/>
<path fill="#FF7926" opacity="1.000000" stroke="none" 
	d="
M1187.289062,957.397949 
	C1187.089111,945.014282 1186.754639,933.022095 1186.979370,921.040344 
	C1187.135376,912.725647 1191.889160,908.335205 1199.802368,908.171997 
	C1207.725220,908.008606 1212.423096,912.126648 1213.401245,920.345337 
	C1213.688110,922.755615 1213.445435,925.228943 1213.445435,927.890381 
	C1210.619507,927.890381 1208.169434,927.890381 1204.984253,927.890381 
	C1204.984253,925.930420 1204.998047,924.006897 1204.981079,922.083618 
	C1204.954346,919.076843 1203.964600,916.730347 1200.513306,916.670471 
	C1197.109009,916.611328 1195.888062,918.729431 1195.892944,921.861328 
	C1195.909424,932.357788 1195.900391,942.854187 1195.914185,953.350647 
	C1195.917969,956.283875 1197.161255,958.145813 1200.329712,958.194580 
	C1203.489868,958.243225 1204.834961,956.389648 1204.939819,953.497681 
	C1205.040771,950.708191 1204.961548,947.912109 1204.961548,944.970520 
	C1208.033447,944.970520 1210.617310,944.970520 1213.149292,944.970520 
	C1215.021851,956.941711 1212.129517,964.001282 1204.680420,966.074524 
	C1196.534668,968.341614 1190.582520,965.490479 1187.289062,957.397949 
z"/>
<path fill="#FF7926" opacity="1.000000" stroke="none" 
	d="
M1045.824341,910.609863 
	C1048.540771,909.639282 1051.337524,909.046814 1054.515991,908.373596 
	C1056.867310,917.024414 1059.018799,924.940002 1061.554810,934.270630 
	C1064.053467,925.025574 1066.167969,917.201721 1068.335327,909.182251 
	C1071.063843,909.182251 1073.675293,909.182251 1076.673950,909.182251 
	C1072.706421,927.970520 1062.620239,945.396729 1066.308228,965.669861 
	C1062.661621,965.669861 1059.922119,965.669861 1056.273438,965.669861 
	C1059.327271,946.233032 1050.450806,929.056763 1045.824341,910.609863 
z"/>
<path fill="#FF7824" opacity="1.000000" stroke="none" 
	d="
M1443.000244,909.315613 
	C1443.163208,909.281677 1443.324585,909.233215 1443.489380,909.215942 
	C1452.809326,908.236816 1452.792114,908.241638 1455.104004,917.056396 
	C1456.451416,922.194458 1457.864258,927.315308 1460.163208,932.692017 
	C1461.360596,928.425842 1462.564941,924.161560 1463.751709,919.892456 
	C1464.152100,918.451660 1464.507324,916.998352 1464.883911,915.550903 
	C1466.753662,908.364746 1466.753784,908.364807 1474.883057,909.376953 
	C1470.861450,928.025696 1460.943237,945.489258 1464.351562,965.716919 
	C1460.943359,965.716919 1458.341431,965.716919 1454.934082,965.716919 
	C1454.934082,964.105713 1454.802002,962.349304 1454.954712,960.618042 
	C1456.442017,943.754883 1448.736694,928.895630 1444.651245,913.250366 
	C1444.604370,913.070923 1444.103516,913.010071 1443.418335,912.643372 
	C1443.014893,911.367065 1443.007568,910.341370 1443.000244,909.315613 
z"/>
<path fill="#FF7722" opacity="1.000000" stroke="none" 
	d="
M1442.552490,909.166199 
	C1443.007568,910.341370 1443.014893,911.367065 1443.046631,912.778687 
	C1443.071167,914.304932 1443.071167,915.445435 1443.071167,917.009399 
	C1440.144287,917.009399 1437.374878,917.009399 1434.050293,917.009399 
	C1434.050293,933.471252 1434.050293,949.523010 1434.050293,965.785095 
	C1430.889160,965.785095 1428.285645,965.785095 1425.117188,965.785095 
	C1425.117188,949.704041 1425.117188,933.652710 1425.117188,917.288330 
	C1421.829956,917.130615 1419.080444,916.998718 1416.040527,916.852844 
	C1416.040527,914.232178 1416.040527,911.849548 1416.040527,909.016785 
	C1424.867065,909.016785 1433.485962,909.016785 1442.552490,909.166199 
z"/>
<path fill="#FF7824" opacity="1.000000" stroke="none" 
	d="
M1403.135010,961.773926 
	C1403.134888,944.058044 1403.134888,926.815552 1403.134888,909.259644 
	C1406.302368,909.259644 1409.040161,909.259644 1412.029297,909.259644 
	C1412.029297,928.042297 1412.029297,946.757751 1412.029297,966.369629 
	C1409.048462,964.239258 1403.713013,969.717651 1403.135010,961.773926 
z"/>
<path fill="#FF7824" opacity="1.000000" stroke="none" 
	d="
M940.854797,927.000854 
	C940.854736,920.869324 940.854736,915.237549 940.854736,909.276611 
	C943.919861,909.276611 946.630432,909.276611 949.886658,909.276611 
	C949.886658,919.379761 949.887085,929.318909 949.886475,939.258057 
	C949.886292,943.252258 949.922241,947.246826 949.875183,951.240540 
	C949.739502,962.765320 944.864319,966.994690 932.812500,965.724121 
	C932.812500,963.370605 932.812500,960.970520 932.813171,958.567444 
	C940.839111,956.766479 940.844238,956.766479 940.853210,948.470032 
	C940.860840,941.480225 940.854797,934.490356 940.854797,927.000854 
z"/>
<path fill="#FF7722" opacity="1.000000" stroke="none" 
	d="
M996.005981,951.993164 
	C996.005981,956.793579 996.005981,961.095764 996.005981,965.698608 
	C992.935730,965.698608 990.219727,965.698608 987.260132,965.698608 
	C987.260132,946.827087 987.260132,928.107910 987.260132,909.168091 
	C990.126892,909.168091 992.730042,909.168091 996.005981,909.168091 
	C996.005981,923.312805 996.005981,937.403870 996.005981,951.993164 
z"/>
<path fill="#F6F4F0" opacity="1.000000" stroke="none" 
	d="
M1128.982422,1133.156372 
	C1134.264282,1158.435059 1133.771973,1182.908936 1122.868530,1206.323608 
	C1111.271240,1231.228271 1091.587524,1246.422729 1064.879883,1252.286865 
	C1045.345459,1256.576050 1025.480347,1254.345703 1005.405151,1254.905884 
	C1005.405151,1192.520508 1005.405151,1130.644043 1005.405151,1068.725586 
	C1005.615295,1068.564331 1005.876038,1068.190430 1006.124939,1068.198120 
	C1024.896240,1068.776367 1043.952393,1067.541626 1062.373657,1070.398560 
	C1094.485352,1075.378784 1115.712524,1095.016602 1126.696289,1125.602661 
	C1127.538086,1127.947021 1128.168579,1130.367310 1128.982422,1133.156372 
z"/>
<path fill="#F5F3EF" opacity="1.000000" stroke="none" 
	d="
M810.970886,1165.007568 
	C814.130066,1175.023438 817.206116,1184.647339 820.444092,1194.778076 
	C789.010742,1194.778076 758.195679,1194.778076 726.842896,1194.778076 
	C731.602966,1180.822876 736.275330,1167.177490 740.912292,1153.519897 
	C749.994202,1126.770020 758.987793,1099.989746 768.237854,1073.298218 
	C769.122620,1070.744873 771.101501,1067.876343 773.377136,1066.661865 
	C776.804138,1064.832764 779.828552,1067.416870 781.608582,1072.966797 
	C789.068481,1096.226074 796.467285,1119.505127 803.893127,1142.775391 
	C806.217102,1150.057983 808.555786,1157.335815 810.970886,1165.007568 
z"/>
<path fill="#F5F3EF" opacity="1.000000" stroke="none" 
	d="
M509.968262,1167.144531 
	C493.533386,1167.145386 477.593384,1167.145386 461.391724,1167.145386 
	C461.391724,1133.966187 461.391724,1101.379395 461.391724,1068.807739 
	C461.673279,1068.586060 461.925598,1068.213379 462.178223,1068.213135 
	C480.163055,1068.195801 498.196899,1067.374146 516.120728,1068.425049 
	C539.669861,1069.805908 556.257202,1086.428101 559.427734,1110.650391 
	C563.097778,1138.688354 546.844666,1162.304810 520.899536,1166.459595 
	C517.472168,1167.008545 513.944397,1166.931030 509.968262,1167.144531 
z"/>
<path fill="#F6F4EF" opacity="1.000000" stroke="none" 
	d="
M687.833252,789.838257 
	C703.348999,774.179504 722.795593,766.486633 742.843689,759.915894 
	C762.424133,753.498230 782.517761,748.409973 800.519531,737.891113 
	C804.376953,735.637146 807.995239,732.973816 811.992188,730.320740 
	C826.166870,739.334106 837.760864,751.102661 847.019775,765.175354 
	C865.463135,793.207825 873.724121,824.074829 871.925171,857.539001 
	C871.606506,863.466797 870.051208,869.348083 868.790161,875.191101 
	C868.478943,876.632935 867.371582,878.277893 866.141846,879.089905 
	C850.033569,889.726746 833.881165,900.298523 817.650391,910.747559 
	C803.313477,919.977417 788.401733,928.000122 771.462830,931.463318 
	C745.213989,936.829956 720.166687,933.062683 697.291443,919.415710 
	C674.335693,905.720703 664.467651,883.671448 663.313782,857.779053 
	C662.170410,832.121765 669.791321,809.175781 687.833252,789.838257 
z"/>
<path fill="#F6F3EE" opacity="1.000000" stroke="none" 
	d="
M618.568115,901.376221 
	C584.970398,841.914368 603.453491,766.629395 660.780457,729.419800 
	C706.013611,700.059937 752.744812,700.713623 801.730713,723.663940 
	C795.356140,727.176880 790.184021,730.923096 784.414551,733.045471 
	C763.821594,740.620544 742.911011,747.334229 722.337341,754.958801 
	C699.314453,763.490967 679.815247,776.811707 666.562256,798.188599 
	C644.790649,833.305725 646.689392,881.770874 671.329163,912.250549 
	C685.703552,930.031799 705.515686,938.048828 727.050781,942.948486 
	C762.706604,951.060852 794.108826,940.439697 823.463806,921.053406 
	C835.250549,913.269409 846.771484,905.083008 859.336060,897.737061 
	C858.173889,899.790588 857.150024,901.937927 855.828918,903.883606 
	C832.877930,937.685974 800.467285,956.462219 760.658264,962.886719 
	C734.482666,967.111023 708.871033,963.646240 684.011230,954.768860 
	C656.049561,944.783875 633.943481,927.456116 618.568115,901.376221 
z"/>
<path fill="#F6F3EE" opacity="1.000000" stroke="none" 
	d="
M1152.442383,922.235168 
	C1152.520752,920.325012 1152.598755,918.873779 1152.673706,917.479858 
	C1159.993896,916.617310 1161.105835,917.519348 1161.214233,924.102905 
	C1161.354980,932.649658 1160.335693,935.092285 1155.753418,934.474426 
	C1149.088867,933.575806 1153.906128,927.876953 1152.476562,924.661194 
	C1152.231323,924.109375 1152.441895,923.354919 1152.442383,922.235168 
z"/>
<path fill="#F6F3EE" opacity="1.000000" stroke="none" 
	d="
M972.852905,947.847656 
	C972.703857,950.631775 973.073120,953.156128 972.227783,955.170837 
	C971.642700,956.565186 969.340637,958.093323 967.881714,958.021484 
	C966.484375,957.952637 964.051208,955.925903 964.018860,954.707947 
	C963.714661,943.268433 963.689819,931.813843 964.014343,920.375793 
	C964.050781,919.093872 967.297180,916.574341 968.106567,916.910828 
	C969.978577,917.688782 972.382568,919.738708 972.585327,921.501282 
	C973.188538,926.745361 972.837952,932.099731 972.851562,937.410950 
	C972.860046,940.730774 972.853027,944.050537 972.852905,947.847656 
z"/>
<path fill="#F6F3EE" opacity="1.000000" stroke="none" 
	d="
M1226.872070,939.995911 
	C1226.875854,933.688477 1226.892822,927.879761 1226.878296,922.071228 
	C1226.870728,919.069214 1227.735962,916.716858 1231.233154,916.664917 
	C1234.940186,916.609863 1236.004150,918.991882 1236.000610,922.235962 
	C1235.989136,932.359497 1235.993408,942.483093 1236.000244,952.606628 
	C1236.002441,955.791199 1235.101196,958.301941 1231.332642,958.258667 
	C1227.501343,958.214661 1226.845703,955.574524 1226.871460,952.443787 
	C1226.904175,948.461060 1226.874756,944.477783 1226.872070,939.995911 
z"/>
<path fill="#F6F3EE" opacity="1.000000" stroke="none" 
	d="
M1088.007446,937.000732 
	C1088.008789,931.853699 1088.021118,927.205872 1088.007446,922.558167 
	C1087.998291,919.435791 1088.727905,916.787231 1092.483643,916.663391 
	C1096.263916,916.538696 1097.166504,919.029846 1097.158691,922.250122 
	C1097.133789,932.375488 1097.137207,942.500977 1097.156250,952.626404 
	C1097.162231,955.806946 1096.366943,958.349365 1092.539551,958.265747 
	C1088.751587,958.182983 1088.010620,955.559998 1088.011108,952.439331 
	C1088.011841,947.459595 1088.008911,942.479797 1088.007446,937.000732 
z"/>
</svg>